:FULLY-SPECIFIED
:FORCE-ALL-JOINTS-BE-3DOF
:DEGREES
2242
root -0.738098 13.835 -16.4042 910.244 -25.6982 169.259
lfemur 11.1741 0.188443 -14.9034
ltibia 34.3022 0 0
lfoot -24.1346 36.3495 0
ltoes -43.0499 0 0
rfemur -70.7539 -22.1917 8.76328
rtibia 72.4923 0 0
rfoot -5.43459 14.2064 0
rtoes 3.60684 0 0
lowerback 9.59531 2.13327 -13.4973
upperback -2.69722 0.790163 -1.94689
thorax -8.57657 0.948231 5.35325
lowerneck 1.10084 -12.0223 -12.4833
upperneck 4.71958 -16.7357 10.3606
head 3.14296 -8.41254 4.41011
lclavicle 3.19082e-14 1.49289e-14 0
lhumerus -69.5094 -18.1238 103.998
lradius 102.115 0 0
lwrist 60.8422 0 0
lhand -10.5004 422.456 0
lfingers 7.12502 0 0
lthumb 15.5012 -334.985 0
rclavicle 3.19082e-14 1.49289e-14 0
rhumerus 49.2841 -9.89132 -59.9767
rradius 16.7391 0 0
rwrist 35.2102 0 0
rhand -19.8625 -402.771 0
rfingers 7.12502 0 0
rthumb 6.47255 287.348 0
2243
root -0.741698 13.8283 -16.4291 910.403 -25.6699 169.199
lfemur 11.2694 0.14489 -14.9599
ltibia 34.0255 0 0
lfoot -24.0675 36.3923 0
ltoes -43.2404 0 0
rfemur -70.9793 -22.2713 8.80361
rtibia 72.7133 0 0
rfoot -5.5879 14.2383 0
rtoes 3.68089 0 0
lowerback 9.50058 2.13438 -13.5334
upperback -2.72508 0.795972 -1.96925
thorax -8.55471 0.951227 5.34858
lowerneck 1.08325 -12.037 -12.465
upperneck 4.69778 -16.7518 10.3704
head 3.14048 -8.41931 4.40859
lclavicle 3.16717e-14 1.55522e-14 0
lhumerus -69.5134 -18.1414 104.002
lradius 102.096 0 0
lwrist 60.9093 0 0
lhand -10.5861 422.226 0
lfingers 7.12502 0 0
lthumb 15.4187 -330.434 0
rclavicle 3.16717e-14 1.55522e-14 0
rhumerus 49.2962 -9.90784 -59.9113
rradius 16.7569 0 0
rwrist 35.1351 0 0
rhand -19.8831 -402.762 0
rfingers 7.12502 0 0
rthumb 6.4527 287.357 0
2244
root -0.745298 13.8215 -16.454 910.562 -25.6415 169.139
lfemur 11.3647 0.101337 -15.0164
ltibia 33.7488 0 0
lfoot -24.0004 36.4351 0
ltoes -43.4309 0 0
rfemur -71.2047 -22.3509 8.84394
rtibia 72.9343 0 0
rfoot -5.74121 14.2702 0
rtoes 3.75493 0 0
lowerback 9.40586 2.1355 -13.5695
upperback -2.75294 0.801781 -1.99162
thorax -8.53284 0.954223 5.3439
lowerneck 1.06566 -12.0516 -12.4468
upperneck 4.67598 -16.768 10.3803
head 3.138 -8.42607 4.40707
lclavicle 3.14351e-14 1.61755e-14 0
lhumerus -69.5174 -18.159 104.006
lradius 102.077 0 0
lwrist 60.9765 0 0
lhand -10.6718 421.997 0
lfingers 7.12502 0 0
lthumb 15.3362 -325.883 0
rclavicle 3.14351e-14 1.61755e-14 0
rhumerus 49.3083 -9.92437 -59.8459
rradius 16.7747 0 0
rwrist 35.0599 0 0
rhand -19.9036 -402.753 0
rfingers 7.12502 0 0
rthumb 6.43285 287.365 0
2245
root -0.748898 13.8147 -16.479 910.722 -25.6132 169.08
lfemur 11.46 0.0577844 -15.0729
ltibia 33.4721 0 0
lfoot -23.9332 36.478 0
ltoes -43.6214 0 0
rfemur -71.43 -22.4305 8.88426
rtibia 73.1552 0 0
rfoot -5.89452 14.3021 0
rtoes 3.82898 0 0
lowerback 9.31113 2.13662 -13.6056
upperback -2.7808 0.80759 -2.01399
thorax -8.51098 0.95722 5.33923
lowerneck 1.04806 -12.0663 -12.4286
upperneck 4.65418 -16.7842 10.3901
head 3.13551 -8.43284 4.40555
lclavicle 3.11986e-14 1.67988e-14 0
lhumerus -69.5214 -18.1766 104.01
lradius 102.058 0 0
lwrist 61.0436 0 0
lhand -10.7575 421.768 0
lfingers 7.12502 0 0
lthumb 15.2537 -321.332 0
rclavicle 3.11986e-14 1.67988e-14 0
rhumerus 49.3203 -9.9409 -59.7805
rradius 16.7925 0 0
rwrist 34.9848 0 0
rhand -19.9242 -402.744 0
rfingers 7.12502 0 0
rthumb 6.413 287.373 0
2246
root -0.752499 13.808 -16.5039 910.881 -25.5849 169.02
lfemur 11.5553 0.0142315 -15.1294
ltibia 33.1954 0 0
lfoot -23.8661 36.5208 0
ltoes -43.8118 0 0
rfemur -71.6554 -22.5102 8.92459
rtibia 73.3762 0 0
rfoot -6.04782 14.334 0
rtoes 3.90303 0 0
lowerback 9.21641 2.13773 -13.6418
upperback -2.80866 0.813398 -2.03635
thorax -8.48912 0.960216 5.33455
lowerneck 1.03047 -12.081 -12.4104
upperneck 4.63238 -16.8003 10.3999
head 3.13303 -8.43961 4.40403
lclavicle 3.09621e-14 1.74222e-14 0
lhumerus -69.5254 -18.1943 104.014
lradius 102.04 0 0
lwrist 61.1107 0 0
lhand -10.8432 421.538 0
lfingers 7.12502 0 0
lthumb 15.1712 -316.781 0
rclavicle 3.09621e-14 1.74222e-14 0
rhumerus 49.3324 -9.95743 -59.7151
rradius 16.8103 0 0
rwrist 34.9097 0 0
rhand -19.9448 -402.735 0
rfingers 7.12502 0 0
rthumb 6.39315 287.382 0
2247
root -0.756099 13.8012 -16.5288 911.04 -25.5565 168.96
lfemur 11.6506 -0.0293213 -15.1859
ltibia 32.9187 0 0
lfoot -23.799 36.5636 0
ltoes -44.0023 0 0
rfemur -71.8808 -22.5898 8.96492
rtibia 73.5971 0 0
rfoot -6.20113 14.3659 0
rtoes 3.97708 0 0
lowerback 9.12168 2.13885 -13.6779
upperback -2.83652 0.819207 -2.05872
thorax -8.46726 0.963212 5.32988
lowerneck 1.01288 -12.0957 -12.3921
upperneck 4.61058 -16.8165 10.4097
head 3.13055 -8.44637 4.40251
lclavicle 3.07256e-14 1.80455e-14 0
lhumerus -69.5294 -18.2119 104.018
lradius 102.021 0 0
lwrist 61.1779 0 0
lhand -10.9288 421.309 0
lfingers 7.12502 0 0
lthumb 15.0887 -312.23 0
rclavicle 3.07256e-14 1.80455e-14 0
rhumerus 49.3445 -9.97395 -59.6497
rradius 16.8281 0 0
rwrist 34.8346 0 0
rhand -19.9653 -402.726 0
rfingers 7.12502 0 0
rthumb 6.3733 287.39 0
2248
root -0.759699 13.7944 -16.5538 911.2 -25.5282 168.9
lfemur 11.7459 -0.0728742 -15.2424
ltibia 32.642 0 0
lfoot -23.7319 36.6065 0
ltoes -44.1928 0 0
rfemur -72.1061 -22.6694 9.00525
rtibia 73.8181 0 0
rfoot -6.35444 14.3978 0
rtoes 4.05113 0 0
lowerback 9.02695 2.13997 -13.714
upperback -2.86438 0.825016 -2.08108
thorax -8.4454 0.966208 5.3252
lowerneck 0.995283 -12.1104 -12.3739
upperneck 4.58878 -16.8327 10.4195
head 3.12807 -8.45314 4.401
lclavicle 3.04891e-14 1.86688e-14 0
lhumerus -69.5334 -18.2295 104.023
lradius 102.002 0 0
lwrist 61.245 0 0
lhand -11.0145 421.079 0
lfingers 7.12502 0 0
lthumb 15.0062 -307.679 0
rclavicle 3.04891e-14 1.86688e-14 0
rhumerus 49.3565 -9.99048 -59.5843
rradius 16.8459 0 0
rwrist 34.7595 0 0
rhand -19.9859 -402.717 0
rfingers 7.12502 0 0
rthumb 6.35345 287.398 0
2249
root -0.763299 13.7877 -16.5787 911.359 -25.4999 168.84
lfemur 11.8412 -0.116427 -15.2989
ltibia 32.3653 0 0
lfoot -23.6648 36.6493 0
ltoes -44.3833 0 0
rfemur -72.3315 -22.749 9.04558
rtibia 74.039 0 0
rfoot -6.50775 14.4297 0
rtoes 4.12517 0 0
lowerback 8.93223 2.14108 -13.7501
upperback -2.89224 0.830825 -2.10345
thorax -8.42354 0.969204 5.32053
lowerneck 0.97769 -12.1251 -12.3557
upperneck 4.56698 -16.8488 10.4294
head 3.12558 -8.45991 4.39948
lclavicle 3.02526e-14 1.92921e-14 0
lhumerus -69.5374 -18.2471 104.027
lradius 101.983 0 0
lwrist 61.3121 0 0
lhand -11.1002 420.85 0
lfingers 7.12502 0 0
lthumb 14.9237 -303.128 0
rclavicle 3.02526e-14 1.92921e-14 0
rhumerus 49.3686 -10.007 -59.5189
rradius 16.8637 0 0
rwrist 34.6843 0 0
rhand -20.0065 -402.708 0
rfingers 7.12502 0 0
rthumb 6.3336 287.407 0
